HIERARCHY
ROOT pelvis
{
  OFFSET 0 100 0
  CHANNELS 6 Xposition Yposition Zposition Zrotation Xrotation Yrotation
  JOINT pelvis_right_femur
  {
    OFFSET -10.78128 -3.44521 -0.5502486
    CHANNELS 3 Zrotation Xrotation Yrotation
    JOINT right_femur_tibia
    {
      OFFSET -0.8047443 -44.0398 -0.1307829
      CHANNELS 3 Zrotation Xrotation Yrotation
      JOINT right_tibia_foot
      {
        OFFSET 3.006224 -47.83518 -5
        CHANNELS 3 Zrotation Xrotation Yrotation
        End Site
        {
          OFFSET 0 -5 15
        }
      }
    }
  }
  JOINT pelvis_left_femur
  {
    OFFSET 10.78128 -3.44521 -0.5502486
    CHANNELS 3 Zrotation Xrotation Yrotation
    JOINT left_femur_tibia
    {
      OFFSET 0.8047443 -44.0398 -0.1307829
      CHANNELS 3 Zrotation Xrotation Yrotation
      JOINT left_tibia_foot
      {
        OFFSET -4.370144 -48.10324 -4.275266
        CHANNELS 3 Zrotation Xrotation Yrotation
        End Site
        {
          OFFSET 0 -5 15
        }
      }
    }
  }
  JOINT pelvis_spine1
  {
    OFFSET 0 6.468898 -3.129235
    CHANNELS 3 Zrotation Xrotation Yrotation
    JOINT spine1
    {
      OFFSET 0 23.15396 4.99043
      CHANNELS 3 Zrotation Xrotation Yrotation
      JOINT spine2
      {
        OFFSET 0 20.79997 -5.064912
        CHANNELS 3 Zrotation Xrotation Yrotation
        JOINT neck
        {
          OFFSET 0 14.38658 9.616178
          CHANNELS 3 Zrotation Xrotation Yrotation
          End Site
          {
            OFFSET 0 20 0
          }
        }
      }
      JOINT right_manubrium
      {
        OFFSET -5.722621 16.35077 3.967754
        CHANNELS 3 Zrotation Xrotation Yrotation
        JOINT right_clavicle
        {
          OFFSET -13.16364 1.694482 -4.693211
          CHANNELS 3 Zrotation Xrotation Yrotation
          JOINT right_humerus
          {
            OFFSET -28.5034 -0.3100689 -2.792744
            CHANNELS 3 Zrotation Xrotation Yrotation
            JOINT right_radius
            {
              OFFSET -25.15693 0.02248979 -1.271978
              CHANNELS 3 Zrotation Xrotation Yrotation
              End Site
              {
                OFFSET -15 0 0
              }
            }
          }
        }
      }
      JOINT left_manubrium
      {
        OFFSET 5.722621 16.35077 3.967754
        CHANNELS 3 Zrotation Xrotation Yrotation
        JOINT left_clavicle
        {
          OFFSET 13.16364 1.694482 -4.693211
          CHANNELS 3 Zrotation Xrotation Yrotation
          JOINT left_humerus
          {
            OFFSET 29.39168 -1.063119 -2.237045
            CHANNELS 3 Zrotation Xrotation Yrotation
            JOINT left_radius
            {
              OFFSET 24.59957 -0.9528479 0.9047498
              CHANNELS 3 Zrotation Xrotation Yrotation
              End Site
              {
                OFFSET 15 -0 -0
              }
            }
          }
        }
      }
    }
  }
}
MOTION
Frames: 9
Frame Time: 0.0416666666667
-28.99335 124.8732 3210.353 0.6497024 -8.054659 0.4550475 1.580148 -12.35772 -6.586222 -0 9.771379 -0 -7.075169 8.135904 -0.7606463 -4.184808 8.511511 -6.114517 -0 19.59629 -0 -7.562842 -20.6794 14.31692 2.802081 -2.373632 5.61007 -0.02775733 16.36096 -7.625671 2.276677 21.31737 2.692888 0.4163868 -20.57933 5.845462 -8.385831 -23.35592 11.19588 101.8555 15.02855 -23.24025 -0 0 9.643289 -21.84486 11.66501 8.124546 2.770958 -27.33083 -8.27144 -85.71197 11.39302 20.07721 0 0 -30.09687 8.688056 15.44014 2.668956
-29.00317 124.4448 3216.933 0.6394244 -7.949841 0.6295465 1.952903 -13.26413 -6.761495 -0 7.889849 -0 -7.121397 8.0665 -0.85574 -4.154858 9.344021 -5.809459 -0 21.27317 -0 -7.41173 -20.45169 14.07647 2.769463 -2.332708 5.467496 0.04735952 16.19599 -7.684084 2.246184 21.41696 2.831925 0.5041811 -20.73323 5.926504 -8.44547 -23.0924 11.17458 101.9575 14.93432 -23.50898 -0 0 9.194794 -21.82928 11.42637 7.82027 2.983707 -27.42631 -8.172615 -85.59475 11.39733 19.45059 0 0 -30.2912 9.006726 15.50633 2.020944
-29.06267 124.1045 3223.637 0.6158309 -7.895448 0.7530742 2.389586 -13.81518 -6.638475 -0 6.558858 -0 -6.989534 8.038131 -1.150177 -4.100589 9.963548 -5.504594 -0 23.30288 -0 -7.369366 -20.05083 13.94969 2.755006 -2.301121 5.39169 0.08838125 16.10967 -7.7171 2.22845 21.47124 2.903145 0.5495518 -20.82008 5.968954 -8.488168 -22.96415 11.16248 102.0077 14.86611 -23.63683 -0 0 8.98142 -21.82798 11.29865 7.639611 3.10304 -27.4656 -8.113514 -85.54849 11.39176 19.1359 0 0 -30.33048 9.200355 15.55507 1.619728
-29.1715 123.8911 3230.474 0.5828601 -7.934162 0.8225456 2.874618 -13.87305 -6.180839 -0 5.828412 -0 -6.610782 8.000226 -1.676698 -4.005875 10.29509 -5.205987 -0 25.6707 -0 -7.570475 -19.50384 13.94629 2.768043 -2.281357 5.396883 0.08610016 16.12055 -7.721146 2.227791 21.47066 2.89016 0.5425066 -20.82398 5.963376 -8.519594 -22.99265 11.15878 102.0116 14.82767 -23.60996 -0 0 9.034858 -21.84344 11.30219 7.605171 3.109063 -27.4449 -8.102582 -85.57662 11.36671 19.1873 0 0 -30.20538 9.244352 15.58509 1.520809
-29.32648 123.8336 3237.438 0.549373 -8.118661 0.8284736 3.377576 -13.27218 -5.392389 -0 5.70238 -0 -5.931717 7.864135 -2.432657 -3.850739 10.2268 -4.918605 -0 28.34478 -0 -8.131653 -18.84404 14.08653 2.819058 -2.2775 5.496679 0.03266392 16.24579 -7.693577 2.247516 21.403 2.776182 0.473711 -20.73015 5.899214 -8.546351 -23.2021 11.16116 101.9694 14.80702 -23.41096 -0 0 9.396818 -21.88303 11.4632 7.736814 2.989313 -27.36328 -8.144239 -85.68886 11.30709 19.65947 0 0 -29.90119 9.118532 15.59986 1.767148
-29.52055 123.9456 3244.501 0.5281326 -8.499423 0.7537797 3.849668 -11.84652 -4.324328 -0 6.146681 -0 -4.943011 7.496315 -3.365188 -3.616694 9.602523 -4.653939 -0 31.23314 -0 -9.094791 -18.11066 14.41672 2.915242 -2.293527 5.701413 -0.07548689 16.49526 -7.632368 2.287818 21.25441 2.548273 0.3358369 -20.52907 5.767626 -8.56933 -23.61901 11.16711 101.867 14.78471 -23.01378 -0 0 10.12247 -21.95389 11.81095 8.05127 2.741025 -27.21765 -8.236324 -85.90218 11.19719 20.60356 0 0 -29.39425 8.810652 15.60418 2.380449
-29.74127 124.2167 3251.603 0.5310753 -9.100185 0.5769869 4.227791 -9.466309 -3.082705 -0 7.08233 -0 -3.72133 6.723916 -4.354422 -3.293081 8.224672 -4.438713 -0 34.10838 -0 -10.38219 -17.35626 15.00984 3.053394 -2.330277 6.01207 -0.232381 16.85941 -7.536371 2.342461 21.01322 2.205853 0.1262438 -20.22515 5.5671 -8.574275 -24.26531 11.17603 101.6657 14.75141 -22.38247 -0 0 11.27314 -22.05326 12.3677 8.559437 2.375129 -26.99591 -8.365369 -86.2368 11.02924 22.04963 0 0 -28.6564 8.323525 15.5976 3.345712
-29.96924 124.6014 3258.656 0.5596267 -9.880269 0.2810752 4.451911 -6.074694 -1.832102 -0 8.364632 -0 -2.47493 5.360693 -5.204654 -2.880269 5.876929 -4.319358 -0 36.51552 -0 -11.78194 -16.64716 15.93712 3.213276 -2.382643 6.411927 -0.4175975 17.29434 -7.406444 2.3961 20.67684 1.770889 -0.1495457 -19.84703 5.309778 -8.525928 -25.14279 11.19066 101.3009 14.72723 -21.47939 -0 0 12.88898 -22.16101 13.13071 9.261288 1.92059 -26.67351 -8.50169 -86.70413 10.81297 23.9742 0 0 -27.67342 7.682117 15.56705 4.596446
-30.17747 125.0114 3265.554 0.5921239 -10.69445 -0.1354028 4.494393 -1.715951 -0.7823584 -0 9.772984 -0 -1.560496 3.248386 -5.667805 -2.386562 2.379507 -4.356238 -0 37.70967 -0 -12.96492 -16.02521 17.215 3.357773 -2.440063 6.862075 -0.5975947 17.71762 -7.246998 2.426228 20.2596 1.291767 -0.4756083 -19.44979 5.023486 -8.375375 -26.21365 11.21621 100.702 14.76663 -20.28654 -0 0 14.94422 -22.24442 14.05337 10.14039 1.423119 -26.22057 -8.601188 -87.29029 10.58053 26.26875 0 0 -26.47294 6.932643 15.48452 6.018372
